<?xml version="1.0" encoding="UTF-8"?><svg id="Layer_1" xmlns="http://www.w3.org/2000/svg" viewBox="0 0 327.34 52.02"><g id="top"><line x1=".53" y1="6.25" x2="6.25" y2=".53" fill="none" stroke="#fff" stroke-miterlimit="10" stroke-width="1.5"/><line x1="5.73" y1=".76" x2="25.07" y2=".76" fill="none" stroke="#fff" stroke-miterlimit="10" stroke-width="1.5"/><line x1="30.76" y1="6.25" x2="36.48" y2=".53" fill="none" stroke="#fff" stroke-miterlimit="10" stroke-width="1.5"/><line x1="35.96" y1=".76" x2="55.3" y2=".76" fill="none" stroke="#fff" stroke-miterlimit="10" stroke-width="1.5"/><line x1="60.98" y1="6.25" x2="66.71" y2=".53" fill="none" stroke="#fff" stroke-miterlimit="10" stroke-width="1.5"/><line x1="66.19" y1=".76" x2="85.53" y2=".76" fill="none" stroke="#fff" stroke-miterlimit="10" stroke-width="1.5"/><line x1="91.21" y1="6.25" x2="96.93" y2=".53" fill="none" stroke="#fff" stroke-miterlimit="10" stroke-width="1.5"/><line x1="96.41" y1=".76" x2="115.75" y2=".76" fill="none" stroke="#fff" stroke-miterlimit="10" stroke-width="1.5"/><line x1="121.44" y1="6.25" x2="127.16" y2=".53" fill="none" stroke="#fff" stroke-miterlimit="10" stroke-width="1.5"/><line x1="126.64" y1=".76" x2="145.98" y2=".76" fill="none" stroke="#fff" stroke-miterlimit="10" stroke-width="1.5"/><line x1="151.66" y1="6.25" x2="157.39" y2=".53" fill="none" stroke="#fff" stroke-miterlimit="10" stroke-width="1.5"/><line x1="156.87" y1=".76" x2="176.21" y2=".76" fill="none" stroke="#fff" stroke-miterlimit="10" stroke-width="1.5"/><line x1="181.89" y1="6.25" x2="187.61" y2=".53" fill="none" stroke="#fff" stroke-miterlimit="10" stroke-width="1.5"/><line x1="187.1" y1=".76" x2="206.43" y2=".76" fill="none" stroke="#fff" stroke-miterlimit="10" stroke-width="1.5"/><line x1="212.12" y1="6.25" x2="217.84" y2=".53" fill="none" stroke="#fff" stroke-miterlimit="10" stroke-width="1.5"/><line x1="217.32" y1=".76" x2="236.66" y2=".76" fill="none" stroke="#fff" stroke-miterlimit="10" stroke-width="1.5"/><line x1="242.34" y1="6.25" x2="248.07" y2=".53" fill="none" stroke="#fff" stroke-miterlimit="10" stroke-width="1.5"/><line x1="247.55" y1=".76" x2="266.89" y2=".76" fill="none" stroke="#fff" stroke-miterlimit="10" stroke-width="1.5"/><line x1="272.57" y1="6.25" x2="278.29" y2=".53" fill="none" stroke="#fff" stroke-miterlimit="10" stroke-width="1.5"/><line x1="277.78" y1=".76" x2="297.11" y2=".76" fill="none" stroke="#fff" stroke-miterlimit="10" stroke-width="1.5"/><line x1="302.8" y1="6.25" x2="308.52" y2=".53" fill="none" stroke="#fff" stroke-miterlimit="10" stroke-width="1.5"/><line x1="308" y1=".76" x2="327.34" y2=".76" fill="none" stroke="#fff" stroke-miterlimit="10" stroke-width="1.5"/></g><g id="bottom"><line x1=".53" y1="45.77" x2="6.25" y2="51.49" fill="none" stroke="#fff" stroke-miterlimit="10" stroke-width="1.5"/><line x1="5.73" y1="51.27" x2="25.07" y2="51.27" fill="none" stroke="#fff" stroke-miterlimit="10" stroke-width="1.5"/><line x1="30.76" y1="45.77" x2="36.48" y2="51.49" fill="none" stroke="#fff" stroke-miterlimit="10" stroke-width="1.5"/><line x1="35.96" y1="51.27" x2="55.3" y2="51.27" fill="none" stroke="#fff" stroke-miterlimit="10" stroke-width="1.5"/><line x1="60.98" y1="45.77" x2="66.71" y2="51.49" fill="none" stroke="#fff" stroke-miterlimit="10" stroke-width="1.5"/><line x1="66.19" y1="51.27" x2="85.53" y2="51.27" fill="none" stroke="#fff" stroke-miterlimit="10" stroke-width="1.5"/><line x1="91.21" y1="45.77" x2="96.93" y2="51.49" fill="none" stroke="#fff" stroke-miterlimit="10" stroke-width="1.5"/><line x1="96.41" y1="51.27" x2="115.75" y2="51.27" fill="none" stroke="#fff" stroke-miterlimit="10" stroke-width="1.5"/><line x1="121.44" y1="45.77" x2="127.16" y2="51.49" fill="none" stroke="#fff" stroke-miterlimit="10" stroke-width="1.5"/><line x1="126.64" y1="51.27" x2="145.98" y2="51.27" fill="none" stroke="#fff" stroke-miterlimit="10" stroke-width="1.5"/><line x1="151.66" y1="45.77" x2="157.39" y2="51.49" fill="none" stroke="#fff" stroke-miterlimit="10" stroke-width="1.5"/><line x1="156.87" y1="51.27" x2="176.21" y2="51.27" fill="none" stroke="#fff" stroke-miterlimit="10" stroke-width="1.5"/><line x1="181.89" y1="45.77" x2="187.61" y2="51.49" fill="none" stroke="#fff" stroke-miterlimit="10" stroke-width="1.5"/><line x1="187.1" y1="51.27" x2="206.43" y2="51.27" fill="none" stroke="#fff" stroke-miterlimit="10" stroke-width="1.5"/><line x1="212.12" y1="45.77" x2="217.84" y2="51.49" fill="none" stroke="#fff" stroke-miterlimit="10" stroke-width="1.5"/><line x1="217.32" y1="51.27" x2="236.66" y2="51.27" fill="none" stroke="#fff" stroke-miterlimit="10" stroke-width="1.5"/><line x1="242.34" y1="45.77" x2="248.07" y2="51.49" fill="none" stroke="#fff" stroke-miterlimit="10" stroke-width="1.5"/><line x1="247.55" y1="51.27" x2="266.89" y2="51.27" fill="none" stroke="#fff" stroke-miterlimit="10" stroke-width="1.5"/><line x1="272.57" y1="45.77" x2="278.29" y2="51.49" fill="none" stroke="#fff" stroke-miterlimit="10" stroke-width="1.5"/><line x1="277.78" y1="51.27" x2="297.11" y2="51.27" fill="none" stroke="#fff" stroke-miterlimit="10" stroke-width="1.5"/><line x1="302.8" y1="45.77" x2="308.52" y2="51.49" fill="none" stroke="#fff" stroke-miterlimit="10" stroke-width="1.5"/><line x1="308" y1="51.27" x2="327.34" y2="51.27" fill="none" stroke="#fff" stroke-miterlimit="10" stroke-width="1.5"/></g></svg>